HIERARCHY
ROOT Hips
{
	OFFSET 0.000000 0.000000 0.000000 
	CHANNELS 6 Xposition Yposition Zposition Zrotation Yrotation Xrotation
	JOINT LeftUpLeg
	{
		OFFSET 1.363060 -1.794630 0.839290 
		CHANNELS 3 Zrotation Yrotation Xrotation
		JOINT LeftLeg
		{
			OFFSET 2.448110 -6.726130 0.000000 
			CHANNELS 3 Zrotation Yrotation Xrotation
			JOINT LeftFoot
			{
				OFFSET 2.562200 -7.039590 0.000000 
				CHANNELS 3 Zrotation Yrotation Xrotation
				JOINT LeftToeBase
				{
					OFFSET 0.157640 -0.433110 2.322550 
					CHANNELS 3 Zrotation Yrotation Xrotation
					End Site
					{
						OFFSET 0.000000 0.000000 0.000000 
					}
				}
			}
		}
	}
	JOINT RightUpLeg
	{
		OFFSET -1.305520 -1.794630 0.839290 
		CHANNELS 3 Zrotation Yrotation Xrotation
		JOINT RightLeg
		{
			OFFSET -2.542530 -6.985550 0.000000 
			CHANNELS 3 Zrotation Yrotation Xrotation
			JOINT RightFoot
			{
				OFFSET -2.568260 -7.056230 0.000000 
				CHANNELS 3 Zrotation Yrotation Xrotation
				JOINT RightToeBase
				{
					OFFSET -0.164730 -0.452590 2.363150 
					CHANNELS 3 Zrotation Yrotation Xrotation
					End Site
					{
						OFFSET 0.000000 0.000000 0.000000 
					}
				}
			}
		}
	}
	JOINT Spine
	{
		OFFSET 0.028270 2.035590 -0.193380 
		CHANNELS 3 Zrotation Yrotation Xrotation
		JOINT Spine1
		{
			OFFSET 0.056720 2.048850 -0.042750 
			CHANNELS 3 Zrotation Yrotation Xrotation
			JOINT Neck1
			{
				OFFSET -0.054170 1.746240 0.172020 
				CHANNELS 3 Zrotation Yrotation Xrotation
				JOINT Head
				{
					OFFSET 0.104070 1.761360 -0.123970 
					CHANNELS 3 Zrotation Yrotation Xrotation
					End Site
					{
						OFFSET 0.000000 0.000000 0.000000 
					}
				}
			}
			JOINT LeftArm
			{
				OFFSET 3.362410 1.200890 -0.311210 
				CHANNELS 3 Zrotation Yrotation Xrotation
				JOINT LeftForeArm
				{
					OFFSET 4.983000 -0.000000 -0.000000 
					CHANNELS 3 Zrotation Yrotation Xrotation
					JOINT LeftHand
					{
						OFFSET 3.483560 -0.000000 -0.000000 
						CHANNELS 3 Zrotation Yrotation Xrotation
						JOINT LeftHandIndex1
						{
							OFFSET 0.715260 -0.000000 -0.000000 
							CHANNELS 3 Zrotation Yrotation Xrotation
							End Site
							{
								OFFSET 0.000000 0.000000 0.000000 
							}
						}
					}
				}
			}
			JOINT RightArm
			{
				OFFSET -3.136600 1.374050 -0.404650 
				CHANNELS 3 Zrotation Yrotation Xrotation
				JOINT RightForeArm
				{
					OFFSET -5.241900 -0.000000 -0.000000 
					CHANNELS 3 Zrotation Yrotation Xrotation
					JOINT RightHand
					{
						OFFSET -3.444170 -0.000000 -0.000000 
						CHANNELS 3 Zrotation Yrotation Xrotation
						JOINT RightHandIndex1
						{
							OFFSET -0.622530 -0.000000 -0.000000 
							CHANNELS 3 Zrotation Yrotation Xrotation
							End Site
							{
								OFFSET 0.000000 0.000000 0.000000 
							}
						}
					}
				}
			}
		}
	}
}
MOTION
Frames: 6
Frame Time: 0.041667
0.668455 16.999949 16.470188 5.580394 5.578668 -4.008964 -27.445810 -3.983820 4.240922 3.571427 10.465298 35.073354 1.658064 -6.894797 -7.632790 0.558600 -4.787400 -13.303000 15.269693 13.962907 -23.703811 -1.652037 -7.658424 22.181878 1.536649 -10.772116 2.229290 -0.118200 2.216900 -6.105600 0.093698 -2.775543 -1.151599 5.358624 -1.036360 -4.338035 6.034494 -3.749809 10.856877 3.861500 -1.859200 9.121500 -76.078841 -7.795332 40.004904 28.405969 -41.361406 -13.783783 -0.391773 -2.226138 -6.898679 -7.125000 0.000000 0.000000 83.813229 -13.174363 7.343999 -13.062158 19.971616 -2.882501 0.947719 -0.673573 8.430656 7.125000 0.000000 0.000000 
0.630730 16.987744 16.678482 5.873117 5.882084 -4.207517 -27.534564 -3.794758 4.986938 3.682137 10.566241 35.525693 1.674103 -7.239125 -7.220877 0.660400 -5.197600 -14.472900 15.006231 13.710544 -23.699736 -1.836080 -8.012549 23.148875 1.366125 -11.470758 7.800476 -0.242500 3.168700 -8.748900 0.054813 -2.864881 -1.104471 5.506344 -1.085079 -4.251894 5.926840 -3.642834 10.639106 3.823800 -1.819800 8.938000 -75.558536 -7.931515 40.862061 28.167595 -41.200858 -13.638382 -0.414694 -2.179493 -6.026168 -7.125000 0.000000 0.000000 83.749981 -13.640497 6.987887 -12.967890 19.871558 -2.854652 0.902859 -0.645947 9.078565 7.125000 0.000000 0.000000 
0.591996 16.974732 16.874065 5.351273 6.074038 -4.411309 -26.677391 -3.712953 5.446919 3.810023 10.706123 36.077138 1.681714 -7.573057 -6.664989 0.812600 -5.752400 -16.067800 15.718874 13.711324 -23.926448 -2.038853 -8.391473 24.191543 0.908805 -11.961625 13.925203 -0.033500 -1.180800 3.246500 0.137509 -2.930980 -1.066770 5.481558 -1.130096 -4.221450 5.889449 -3.591239 10.875429 3.827000 -1.802900 9.087500 -75.146873 -7.976193 41.468304 28.067866 -41.134054 -13.573483 -0.502541 -2.131233 -5.020156 -7.125000 0.000000 0.000000 83.575287 -13.638742 6.264275 -12.597661 19.335377 -2.697067 0.846170 -0.683574 10.163499 7.125000 0.000000 0.000000 
0.555785 16.958089 17.057948 4.843918 6.203350 -4.532969 -25.910921 -3.752783 5.643206 3.988819 10.917190 36.869215 1.665766 -7.782235 -6.053551 0.998700 -6.359700 -17.831800 16.567475 13.408484 -24.455141 -2.156508 -8.712963 25.311616 0.388441 -8.811054 14.293125 -0.012500 -0.722200 1.984800 0.232586 -2.936914 -1.047559 5.491116 -1.143442 -4.206869 5.921866 -3.604884 11.173016 3.875300 -1.820100 9.269900 -74.913707 -7.923806 41.736732 28.041642 -41.128630 -13.576362 -0.489041 -2.103054 -3.212004 -7.125000 0.000000 0.000000 83.343683 -13.572316 5.312894 -12.181493 18.718457 -2.518087 0.803286 -0.726136 11.446773 7.125000 0.000000 0.000000 
0.521187 16.949011 17.253230 4.476518 6.296760 -4.835284 -25.355445 -3.771217 5.867422 4.273027 11.242463 38.102084 1.636553 -7.884119 -5.517895 1.260700 -7.117600 -20.064400 17.522463 12.435393 -24.783060 -2.355117 -9.105155 26.586648 0.364329 -8.415378 13.928760 -0.113800 -2.174900 5.989100 0.322626 -2.957874 -1.053920 5.572776 -1.150351 -4.307304 5.830498 -3.444022 11.317606 3.872400 -1.769500 9.254900 -74.810978 -7.686366 41.534771 27.849470 -40.991229 -13.470923 -0.343773 -2.101973 -0.742588 -7.125000 0.000000 0.000000 83.078431 -13.947899 4.817624 -11.944705 18.392570 -2.425602 0.767591 -0.742034 12.250212 7.125000 0.000000 0.000000 
0.483765 16.955668 17.440038 3.698554 6.110845 -5.186982 -24.337476 -3.811662 5.799609 4.625255 11.641522 39.618691 1.596392 -8.112522 -4.522864 1.385300 -7.447200 -21.047100 19.038857 11.869571 -24.843952 -2.586417 -9.508458 27.937408 0.471955 -8.638712 13.163937 -0.082700 -1.854900 5.104900 0.463807 -2.872511 -1.118442 5.534874 -1.092057 -4.689531 5.726510 -3.251931 11.601440 3.866500 -1.709300 9.300200 -74.803602 -7.254426 41.318672 27.614661 -40.791729 -13.300259 -0.264818 -2.118236 0.968272 -7.125000 0.000000 0.000000 82.915745 -14.431355 4.287620 -11.806466 18.208616 -2.375415 0.731442 -0.736480 12.912372 7.125000 0.000000 0.000000 
